<?xml version="1.0" encoding="iso-8859-1"?>
<!-- Generator: Adobe Illustrator 19.0.0, SVG Export Plug-In . SVG Version: 6.00 Build 0)  -->
<svg xmlns="http://www.w3.org/2000/svg" xmlns:xlink="http://www.w3.org/1999/xlink" version="1.1" id="Layer_1" x="0px" y="0px" viewBox="0 0 512 512" style="enable-background:new 0 0 512 512;" xml:space="preserve" width="512px" height="512px">
<g>
	<g>
		<polygon points="478.609,0 33.391,0 0,0 0,33.391 0,100.174 0,133.565 33.391,133.565 478.609,133.565 512,133.565 512,100.174     512,33.391 512,0   " fill="#898989"/>
	</g>
</g>
<g>
	<g>
		<polygon points="478.609,189.217 33.391,189.217 0,189.217 0,222.609 0,289.391 0,322.783 33.391,322.783 478.609,322.783     512,322.783 512,289.391 512,222.609 512,189.217   " fill="#898989"/>
	</g>
</g>
<g>
	<g>
		<polygon points="478.609,378.435 33.391,378.435 0,378.435 0,411.826 0,478.609 0,512 33.391,512 478.609,512 512,512     512,478.609 512,411.826 512,378.435   " fill="#898989"/>
	</g>
</g>
<g>
</g>
<g>
</g>
<g>
</g>
<g>
</g>
<g>
</g>
<g>
</g>
<g>
</g>
<g>
</g>
<g>
</g>
<g>
</g>
<g>
</g>
<g>
</g>
<g>
</g>
<g>
</g>
<g>
</g>
</svg>
